P1
50 50
10100110011110101010101010101010101010101010101011
00101100110000101010101010101010101010101010101010
11101001100111101010101010101010101010101010101010
10001011001100001010101010101010101010101010101010
10111010011001111010101010101010101010101010101010
10100010110011000010101010101010101010101010101010
10101110100110011110101010101010101010101010101010
10101000101100110000101010101010101010101010101010
10101011101001100111101010101010101010101010101010
10101010001011001100001010101010101010101010101010
10101010111010011001111010101010101010101010101010
10101010100010110011000010101010101010101010101010
10101010101110100110011110101010101010101010101010
10101010101000101100110000101010101010101010101010
10101010101011101001100111101010101010101010101010
10101010101010001011001100001010101010101010101010
10101010101010111010011001111010101010101010101010
10101010101010100010110011000010101010101010101010
10101010101010101110100110011110101010101010101010
10101010101010101000101100110000101010101010101010
10101010101010101011101001100111101010101010101010
10101010101010101010001011001100001010101010101010
10101010101010101010111010011001111010101010101010
10101010101010101010100010110011000010101010101010
10101010101010101010101110100110011110101010101010
10101010101010101010101000101100110000101010101010
10101010101010101010101011101001100111101010101010
10101010101010101010101010001011001100001010101010
10101010101010101010101010111010011001111010101010
10101010101010101010101010100010110011000010101010
10101010101010101010101010101110100110011110101010
10101010101010101010101010101000101100110000101010
10101010101010101010101010101011101001100111101010
10101010101010101010101010101010001011001100001010
10101010101010101010101010101010111010011001111010
10101010101010101010101010101010100010110011000010
10101010101010101010101010101010101110100110011110
10101010101010101010101010101010101000101100110000
10101010101010101010101010101010101011101001100111
00101010101010101010101010101010101010001011001100
11101010101010101010101010101010101010111010011001
00001010101010101010101010101010101010100010110011
01111010101010101010101010101010101010101110100110
11000010101010101010101010101010101010101000101100
10011110101010101010101010101010101010101011101001
00110000101010101010101010101010101010101010001011
01100111101010101010101010101010101010101010111010
11001100001010101010101010101010101010101010100010
10011001111010101010101010101010101010101010101110
10110011000010101010101010101010101010101010101000
