P1
80 80
00000000000000000000000000000000000000010000000000000000000000000000000000000000
00000000000000000000000000000000000000111000000000000000000000000000000000000000
00000000000000000000000000000000000001100100000000000000000000000000000000000000
00000000000000000000000000000000000011011110000000000000000000000000000000000000
00000000000000000000000000000000000110010001000000000000000000000000000000000000
00000000000000000000000000000000001101111011100000000000000000000000000000000000
00000000000000000000000000000000011001000010010000000000000000000000000000000000
00000000000000000000000000000000110111100111111000000000000000000000000000000000
00000000000000000000000000000001100100011100000100000000000000000000000000000000
00000000000000000000000000000011011110110010001110000000000000000000000000000000
00000000000000000000000000000110010000101111011001000000000000000000000000000000
00000000000000000000000000001101111001101000010111100000000000000000000000000000
00000000000000000000000000011001000111001100110100010000000000000000000000000000
00000000000000000000000000110111101100111011100110111000000000000000000000000000
00000000000000000000000001100100001011100010011100100100000000000000000000000000
00000000000000000000000011011110011010010111110011111110000000000000000000000000
00000000000000000000000110010001110011110100001110000001000000000000000000000000
00000000000000000000001101111011001110000110011001000011100000000000000000000000
00000000000000000000011001000010111001001101110111100110010000000000000000000000
00000000000000000000110111100110100111111001000100011101111000000000000000000000
00000000000000000001100100011100111100000111101110110001000100000000000000000000
00000000000000000011011110110011100010001100001000101011101110000000000000000000
00000000000000000110010000101110010111011010011101101010001001000000000000000000
00000000000000001101111001101001110100010011110001001011011111100000000000000000
00000000000000011001000111001111000110111110001011111010010000010000000000000000
00000000000000110111101100111000101100100001011010000011111000111000000000000000
00000000000001100100001011100101101011110011010011000110000101100100000000000000
00000000000011011110011010011101001010001110011110101101001101011110000000000000
00000000000110010001110011110001111011011001110000101001111001010001000000000000
00000000001101111011001110001011000010010111001001101111000111011011100000000000
00000000011001000010111001011010100111110100111111001000101100010010010000000000
00000000110111100110100111010010111100000111100000111101101010111111111000000000
00000001100100011100111100011110100010001100010001100001001010100000000100000000
00000011011110110011100010110000110111011010111011010011111010110000001110000000
00000110010000101110010110101001100100010010100010011110000010101000011001000000
00001101111001101001110100101111011110111110110111110001000110101100110111100000
00011001000111001111000111101000010000100000100100001011101100101011100100010000
00110111101100111000101100001100111001110001111110011010001011101010011110111000
01100100001011100101101010011011100111001011000001110011011010001011110000100100
11011110011010011101001011110010011100111010100011001110010011011010001001111110
10010001110011110001111010001111110011100010110110111001111110010011011111000000
11111011001110001011000011011000001110010110100100100111000001111110010000100001
00000010111001011010100110010100011001110100111111111100100011000001111001110011
10000110100111010010111101110110110111000111100000000011110110100011000111001110
11001100111100011110100001000100100100101100010000000110000100110110101100111000
10111011100010110000110011101111111111101010111000001101001111100100101011100101
00100010010110101001101110001000000000001010100100011001111000011111101010011101
11110111110100101111001001011100000000011010111110110111000100110000001011110001
00000100000111101000111111010010000000110010100000100100101111101000011010001011
10001110001100001101100000011111000001101110110001111111101000001100110011011010
11011001011010011001010000110000100011001000101011000000001100011011101110010010
10010111010011110111011001101001110110111101101010100000011010110010001001111110
11110100011110000100010111001111000100100001001010110000110010101111011111000000
10000110110001001110110100111000101111110011111010101001101110101000010000100001
01001100101011111000100111100101101000001110000010101111001000101100111001110011
01111011101010000101111100011101001100011001000110101000111101101011100111001110
11000010001011001101000010110001111010110111101100101101100001001010011100111001
00100111011010111001100110101011000010100100001011101001010011111011110011100111
11111100010010100111011100101010100110111110011010001111011110000010001110011100
10000010111110111100010011101010111100100001110011011000010001000111011001110011
01000110100000100010111110001010100011110011001110010100111011101100010111001110
11101100110001110110100001011010110110001110111001110111100010001010110100111001
00001011101011000100110011010010100101011000100111000100010111011010100111100111
10011010001010101111101110011110111101010101111100101110110100010010111100011100
11110011011010101000001001110000100001010101000011101000100110111110100010110011
00001110010010101100011111001001110011010101100110001101111100100000110110101110
00011001111110101010110000111111001110010101011101011001000011110001100100101001
10110111000000101010101001100000111001110101010001010111100110001011011111101111
00100100100001101010101111010001100111000101011011010100011101011010010000001000
01111111110011001010101000011011011100101101010010010110110001010011111000011100
11000000001110111010101100110010010011101001011111110100101011011110000100110010
10100000011000100010101011101111111110001111010000000111101010010001001111101110
10110000110101110110101010001000000001011000011000001100001011111011111000001000
10101001100101000100101011011100000011010100110100011010011010000010000100011101
00101111011101101111101010010010000110010111100110110011110011000111001110110001
11101000010001001000001011111111001101110100011100101110001110101100111000101011
00001100111011111100011010000000111001000110110011101001011000101011100101101010
00011011100010000010110011000001100111101100101110001111010101101010011101001011
10110010010111000110101110100011011100001011101001011000010101001011110001111010
10101111110100101100101000110110010010011010001111010100110101111010001011000010
