P1
50 50
10100110011110101010101010101010101010101010101011
11110011001111111111111111111111111111111111111101
11111001100111111111111111111111111111111111111110
01111100110011111111111111111111111111111111111111
10111110011001111111111111111111111111111111111111
11011111001100111111111111111111111111111111111111
11101111100110011111111111111111111111111111111111
11110111110011001111111111111111111111111111111111
11111011111001100111111111111111111111111111111111
11111101111100110011111111111111111111111111111111
11111110111110011001111111111111111111111111111111
11111111011111001100111111111111111111111111111111
11111111101111100110011111111111111111111111111111
11111111110111110011001111111111111111111111111111
11111111111011111001100111111111111111111111111111
11111111111101111100110011111111111111111111111111
11111111111110111110011001111111111111111111111111
11111111111111011111001100111111111111111111111111
11111111111111101111100110011111111111111111111111
11111111111111110111110011001111111111111111111111
11111111111111111011111001100111111111111111111111
11111111111111111101111100110011111111111111111111
11111111111111111110111110011001111111111111111111
11111111111111111111011111001100111111111111111111
11111111111111111111101111100110011111111111111111
11111111111111111111110111110011001111111111111111
11111111111111111111111011111001100111111111111111
11111111111111111111111101111100110011111111111111
11111111111111111111111110111110011001111111111111
11111111111111111111111111011111001100111111111111
11111111111111111111111111101111100110011111111111
11111111111111111111111111110111110011001111111111
11111111111111111111111111111011111001100111111111
11111111111111111111111111111101111100110011111111
11111111111111111111111111111110111110011001111111
11111111111111111111111111111111011111001100111111
11111111111111111111111111111111101111100110011111
11111111111111111111111111111111110111110011001111
11111111111111111111111111111111111011111001100111
11111111111111111111111111111111111101111100110011
11111111111111111111111111111111111110111110011001
11111111111111111111111111111111111111011111001100
01111111111111111111111111111111111111101111100110
00111111111111111111111111111111111111110111110011
10011111111111111111111111111111111111111011111001
11001111111111111111111111111111111111111101111100
01100111111111111111111111111111111111111110111110
00110011111111111111111111111111111111111111011111
10011001111111111111111111111111111111111111101111
11001100111111111111111111111111111111111111110111
