P1
50 50
10100110011110101010101010101010101010101010101011
00110101010000101010101010101010101010101010101010
10100101011110101010101010101010101010101010101011
00110101010000101010101010101010101010101010101010
10100101011110101010101010101010101010101010101011
00110101010000101010101010101010101010101010101010
10100101011110101010101010101010101010101010101011
00110101010000101010101010101010101010101010101010
10100101011110101010101010101010101010101010101011
00110101010000101010101010101010101010101010101010
10100101011110101010101010101010101010101010101011
00110101010000101010101010101010101010101010101010
10100101011110101010101010101010101010101010101011
00110101010000101010101010101010101010101010101010
10100101011110101010101010101010101010101010101011
00110101010000101010101010101010101010101010101010
10100101011110101010101010101010101010101010101011
00110101010000101010101010101010101010101010101010
10100101011110101010101010101010101010101010101011
00110101010000101010101010101010101010101010101010
10100101011110101010101010101010101010101010101011
00110101010000101010101010101010101010101010101010
10100101011110101010101010101010101010101010101011
00110101010000101010101010101010101010101010101010
10100101011110101010101010101010101010101010101011
00110101010000101010101010101010101010101010101010
10100101011110101010101010101010101010101010101011
00110101010000101010101010101010101010101010101010
10100101011110101010101010101010101010101010101011
00110101010000101010101010101010101010101010101010
10100101011110101010101010101010101010101010101011
00110101010000101010101010101010101010101010101010
10100101011110101010101010101010101010101010101011
00110101010000101010101010101010101010101010101010
10100101011110101010101010101010101010101010101011
00110101010000101010101010101010101010101010101010
10100101011110101010101010101010101010101010101011
00110101010000101010101010101010101010101010101010
10100101011110101010101010101010101010101010101011
00110101010000101010101010101010101010101010101010
10100101011110101010101010101010101010101010101011
00110101010000101010101010101010101010101010101010
10100101011110101010101010101010101010101010101011
00110101010000101010101010101010101010101010101010
10100101011110101010101010101010101010101010101011
00110101010000101010101010101010101010101010101010
10100101011110101010101010101010101010101010101011
00110101010000101010101010101010101010101010101010
10100101011110101010101010101010101010101010101011
00110101010000101010101010101010101010101010101010
