P1
50 50
10100110011110101010101010101010101010101010101011
10011011101110000000000000000000000000000000000001
11101001100111000000000000000000000000000000000010
01100110111011100000000000000000000000000000000100
10111010011001110000000000000000000000000000001010
00011001101110111000000000000000000000000000010000
00101110100110011100000000000000000000000000101000
01000110011011101110000000000000000000000001000100
10101011101001100111000000000000000000000010101010
00000001100110111011100000000000000000000100000000
00000010111010011001110000000000000000001010000000
00000100011001101110111000000000000000010001000000
00001010101110100110011100000000000000101010100000
00010000000110011011101110000000000001000000010000
00101000001011101001100111000000000010100000101000
01000100010001100110111011100000000100010001000100
10101010101010111010011001110000001010101010101010
00000000000000011001101110111000010000000000000000
00000000000000101110100110011100101000000000000000
00000000000001000110011011101111000100000000000000
00000000000010101011101001100111101010000000000000
00000000000100000001100110111011100001000000000000
00000000001010000010111010011001110010100000000000
00000000010001000100011001101110111100010000000000
00000000101010101010101110100110011110101000000000
00000001000000000000000110011011101110000100000000
00000010100000000000001011101001100111001010000000
00000100010000000000010001100110111011110001000000
00001010101000000000101010111010011001111010100000
00010000000100000001000000011001101110111000010000
00101000001010000010100000101110100110011100101000
01000100010001000100010001000110011011101111000100
10101010101010101010101010101011101001100111101010
00000000000000000000000000000001100110111011100000
00000000000000000000000000000010111010011001110000
00000000000000000000000000000100011001101110111000
00000000000000000000000000001010101110100110011100
00000000000000000000000000010000000110011011101110
00000000000000000000000000101000001011101001100111
10000000000000000000000001000100010001100110111011
11000000000000000000000010101010101010111010011001
11100000000000000000000100000000000000011001101110
01110000000000000000001010000000000000101110100110
10111000000000000000010001000000000001000110011011
10011100000000000000101010100000000010101011101001
11101110000000000001000000010000000100000001100110
01100111000000000010100000101000001010000010111010
10111011100000000100010001000100010001000100011001
10011001110000001010101010101010101010101010101110
01101110111000010000000000000000000000000000000110
