P1
50 50
10100110011110101010101010101010101010101010101011
11111111110011111111111111111111111111111111111110
10000000011110000000000000000000000000000000000011
11000000110011000000000000000000000000000000000110
11100001111111100000000000000000000000000000001111
00110011000000110000000000000000000000000000011000
01111111100001111000000000000000000000000000111100
11000000110011001100000000000000000000000001100110
11100001111111111110000000000000000000000011111111
00110011000000000011000000000000000000000110000000
01111111100000000111100000000000000000001111000000
11000000110000001100110000000000000000011001100000
11100001111000011111111000000000000000111111110001
00110011001100110000001100000000000001100000011011
11111111111111111000011110000000000011110000111111
00000000000000001100110011000000000110011001100000
00000000000000011111111111100000001111111111110000
00000000000000110000000000110000011000000000011000
00000000000001111000000001111000111100000000111100
00000000000011001100000011001101100110000001100110
00000000000111111110000111111111111111000011111111
10000000001100000011001100000000000001100110000001
11000000011110000111111110000000000011111111000011
01100000110011001100000011000000000110000001100110
11110001111111111110000111100000001111000011111111
00011011000000000011001100110000011001100110000000
00111111100000000111111111111000111111111111000000
01100000110000001100000000001101100000000001100000
11110001111000011110000000011111110000000011110000
10011011001100110011000000110000011000000110011001
11111111111111111111100001111000111100001111111111
00000000000000000000110011001101100110011000000000
00000000000000000001111111111111111111111100000000
00000000000000000011000000000000000000000110000000
00000000000000000111100000000000000000001111000000
00000000000000001100110000000000000000011001100000
00000000000000011111111000000000000000111111110000
00000000000000110000001100000000000001100000011000
00000000000001111000011110000000000011110000111100
00000000000011001100110011000000000110011001100110
00000000000111111111111111100000001111111111111111
10000000001100000000000000110000011000000000000001
11000000011110000000000001111000111100000000000011
01100000110011000000000011001101100110000000000110
11110001111111100000000111111111111111000000001111
00011011000000110000001100000000000001100000011000
00111111100001111000011110000000000011110000111100
01100000110011001100110011000000000110011001100110
11110001111111111111111111100000001111111111111111
00011011000000000000000000110000011000000000000000
