P1
50 50
10100110011110101010101010101010101010101010101011
01010001000001010101010101010101010101010101010100
00101000100000101010101010101010101010101010101010
00010100010000010101010101010101010101010101010101
10001010001000001010101010101010101010101010101010
01000101000100000101010101010101010101010101010101
10100010100010000010101010101010101010101010101010
01010001010001000001010101010101010101010101010101
10101000101000100000101010101010101010101010101010
01010100010100010000010101010101010101010101010101
10101010001010001000001010101010101010101010101010
01010101000101000100000101010101010101010101010101
10101010100010100010000010101010101010101010101010
01010101010001010001000001010101010101010101010101
10101010101000101000100000101010101010101010101010
01010101010100010100010000010101010101010101010101
10101010101010001010001000001010101010101010101010
01010101010101000101000100000101010101010101010101
10101010101010100010100010000010101010101010101010
01010101010101010001010001000001010101010101010101
10101010101010101000101000100000101010101010101010
01010101010101010100010100010000010101010101010101
10101010101010101010001010001000001010101010101010
01010101010101010101000101000100000101010101010101
10101010101010101010100010100010000010101010101010
01010101010101010101010001010001000001010101010101
10101010101010101010101000101000100000101010101010
01010101010101010101010100010100010000010101010101
10101010101010101010101010001010001000001010101010
01010101010101010101010101000101000100000101010101
10101010101010101010101010100010100010000010101010
01010101010101010101010101010001010001000001010101
10101010101010101010101010101000101000100000101010
01010101010101010101010101010100010100010000010101
10101010101010101010101010101010001010001000001010
01010101010101010101010101010101000101000100000101
10101010101010101010101010101010100010100010000010
01010101010101010101010101010101010001010001000001
10101010101010101010101010101010101000101000100000
01010101010101010101010101010101010100010100010000
00101010101010101010101010101010101010001010001000
00010101010101010101010101010101010101000101000100
00001010101010101010101010101010101010100010100010
00000101010101010101010101010101010101010001010001
10000010101010101010101010101010101010101000101000
01000001010101010101010101010101010101010100010100
00100000101010101010101010101010101010101010001010
00010000010101010101010101010101010101010101000101
10001000001010101010101010101010101010101010100010
01000100000101010101010101010101010101010101010001
