P1
80 80
00000000000000000000000000000000000000010000000000000000000000000000000000000000
00000000000000000000000000000000000000110000000000000000000000000000000000000000
00000000000000000000000000000000000001110000000000000000000000000000000000000000
00000000000000000000000000000000000011010000000000000000000000000000000000000000
00000000000000000000000000000000000111110000000000000000000000000000000000000000
00000000000000000000000000000000001100010000000000000000000000000000000000000000
00000000000000000000000000000000011100110000000000000000000000000000000000000000
00000000000000000000000000000000110101110000000000000000000000000000000000000000
00000000000000000000000000000001111111010000000000000000000000000000000000000000
00000000000000000000000000000011000001110000000000000000000000000000000000000000
00000000000000000000000000000111000011010000000000000000000000000000000000000000
00000000000000000000000000001101000111110000000000000000000000000000000000000000
00000000000000000000000000011111001100010000000000000000000000000000000000000000
00000000000000000000000000110001011100110000000000000000000000000000000000000000
00000000000000000000000001110011110101110000000000000000000000000000000000000000
00000000000000000000000011010110011111010000000000000000000000000000000000000000
00000000000000000000000111111110110001110000000000000000000000000000000000000000
00000000000000000000001100000011110011010000000000000000000000000000000000000000
00000000000000000000011100000110010111110000000000000000000000000000000000000000
00000000000000000000110100001110111100010000000000000000000000000000000000000000
00000000000000000001111100011011100100110000000000000000000000000000000000000000
00000000000000000011000100111110101101110000000000000000000000000000000000000000
00000000000000000111001101100011111111010000000000000000000000000000000000000000
00000000000000001101011111100110000001110000000000000000000000000000000000000000
00000000000000011111110000101110000011010000000000000000000000000000000000000000
00000000000000110000010001111010000111110000000000000000000000000000000000000000
00000000000001110000110011001110001100010000000000000000000000000000000000000000
00000000000011010001110111011010011100110000000000000000000000000000000000000000
00000000000111110011011101111110110101110000000000000000000000000000000000000000
00000000001100010111110111000011111111010000000000000000000000000000000000000000
00000000011100111100011101000110000001110000000000000000000000000000000000000000
00000000110101100100110111001110000011010000000000000000000000000000000000000000
00000001111111101101111101011010000111110000000000000000000000000000000000000000
00000011000000111111000111111110001100010000000000000000000000000000000000000000
00000111000001100001001100000010011100110000000000000000000000000000000000000000
00001101000011100011011100000110110101110000000000000000000000000000000000000000
00011111000110100111110100001111111111010000000000000000000000000000000000000000
00110001001111101100011100011000000001110000000000000000000000000000000000000000
01110011011000111100110100111000000011010000000000000000000000000000000000000000
11010111111001100101111101101000000111110000000000000000000000000000000000000000
11111100001011101111000111111000001100010000000000000000000000000000000000000001
00000100011110111001001100001000011100110000000000000000000000000000000000000011
00001100110011101011011100011000110101110000000000000000000000000000000000000111
00011101110110111111110100111001111111010000000000000000000000000000000000001101
00110111011111100000011101101011000001110000000000000000000000000000000000011111
01111101110000100000110111111111000011010000000000000000000000000000000000110001
11000111010001100001111100000001000111110000000000000000000000000000000001110011
01001101110011100011000100000011001100010000000000000000000000000000000011010110
11011111010110100111001100000111011100110000000000000000000000000000000111111110
11110001111111101101011100001101110101110000000000000000000000000000001100000011
00010011000000111111110100011111011111010000000000000000000000000000011100000110
00110111000001100000011100110001110001110000000000000000000000000000110100001110
01111101000011100000110101110011010011010000000000000000000000000001111100011010
11000111000110100001111111010111110111110000000000000000000000000011000100111110
11001101001111100011000001111100011100010000000000000000000000000111001101100011
01011111011000100111000011000100110100110000000000000000000000001101011111100110
11110001111001101101000111001101111101110000000000000000000000011111110000101110
10010011001011111111001101011111000111010000000000000000000000110000010001111011
10110111011110000001011111110001001101110000000000000000000001110000110011001110
11111101110010000011110000010011011111010000000000000000000011010001110111011011
00000111010110000110010000110111110001110000000000000000000111110011011101111110
00001101111110001110110001111100010011010000000000000000001100010111110111000010
00011111000010011011110011000100110111110000000000000000011100111100011101000110
00110001000110111110010111001101111100010000000000000000110101100100110111001110
01110011001111100010111101011111000100110000000000000001111111101101111101011010
11010111011000100111100111110001001101110000000000000011000000111111000111111110
11111101111001101100101100010011011111010000000000000111000001100001001100000011
00000111001011111101111100110111110001110000000000001101000011100011011100000110
00001101011110000111000101111100010011010000000000011111000110100111110100001110
00011111110010001101001111000100110111110000000000110001001111101100011100011010
00110000010110011111011001001101111100010000000001110011011000111100110100111110
01110000111110110001111011011111000100110000000011010111111001100101111101100010
11010001100011110011001111110001001101110000000111111100001011101111000111100110
11110011100110010111011000010011011111010000001100000100011110111001001100101111
00010110101110111101111000110111110001110000011100001100110011101011011101111000
00111111111011100111001001111100010011010000110100011101110110111111110111001000
01100000001110101101011011000100110111110001111100110111011111100000011101011000
11100000011011111111111111001101111100010011000101111101110000100000110111111000
10100000111110000000000001011111000100110111001111000111010001100001111100001001
11100001100010000000000011110001001101111101011001001101110011100011000100011011
