P1
80 80
10110101010110111111001010100010010101011110101010101011010101011010101010101010
11111111111111100001011111100110111111110011111111111111111111111111111111111111
00000000000000100011110000101111100000010110000000000000000000000000000000000000
00000000000001100110010001111000100000111110000000000000000000000000000000000000
00000000000011101110110011001001100001100010000000000000000000000000000000000000
00000000000110111011110111011011100011100110000000000000000000000000000000000000
00000000001111101110011101111110100110101110000000000000000000000000000000000000
00000000011000111010110111000011101111111010000000000000000000000000000000000000
00000000111001101111111101000110111000001110000000000000000000000000000000000000
00000001101011111000000111001111101000011010000000000000000000000000000000000000
00000011111110001000001101011000111000111110000000000000000000000000000000000000
00000110000010011000011111111001101001100010000000000000000000000000000000000000
00001110000110111000110000001011111011100110000000000000000000000000000000000000
00011010001111101001110000011110001110101110000000000000000000000000000000000000
00111110011000111011010000110010011011111010000000000000000000000000000000000000
01100010111001101111110001110110111110001110000000000000000000000000000000000000
11100111101011111000010011011111100010011010000000000000000000000000000000000000
10101100111110001000110111110000100110111110000000000000000000000000000000000001
11111101100010011001111100010001101111100010000000000000000000000000000000000011
00000111100110111011000100110011111000100110000000000000000000000000000000000110
00001100101111101111001101110110001001101110000000000000000000000000000000001110
00011101111000111001011111011110011011111010000000000000000000000000000000011010
00110111001001101011110001110010111110001110000000000000000000000000000000111110
01111101011011111110010011010111100010011010000000000000000000000000000001100010
11000111111110000010110111111100100110111110000000000000000000000000000011100110
11001100000010000111111100000101101111100010000000000000000000000000000110101111
01011100000110001100000100001111111000100110000000000000000000000000001111111000
11110100001110011100001100011000001001101110000000000000000000000000011000001000
10011100011010110100011100111000011011111010000000000000000000000000111000011001
10110100111111111100110101101000111110001110000000000000000000000001101000111011
11111101100000000101111111111001100010011010000000000000000000000011111001101110
10000111100000001111000000001011100110111110000000000000000000000110001011111011
10001100100000011001000000011110101111100010000000000000000000001110011110001110
10011101100000111011000000110011111000100110000000000000000000011010110010011011
10110111100001101111000001110110001001101110000000000000000000111111110110111110
11111100100011111001000011011110011011111010000000000000000001100000011111100011
00000101100110001011000111110010111110001110000000000000000011100000110000100110
00001111101110011111001100010111100010011010000000000000000110100001110001101110
00011000111010110001011100111100100110111110000000000000001111100011010011111010
00111001101111110011110101100101101111100010000000000000011000100111110110001110
01101011111000010110011111101111111000100110000000000000111001101100011110011010
11111110001000111110110000111000001001101110000000000001101011111100110010111110
10000010011001100011110001101000011011111010000000000011111110000101110111100011
10000110111011100110010011111000111110001110000000000110000010001111011100100110
10001111101110101110110110001001100010011010000000001110000110011001110101101111
10011000111011111011111110011011100110111110000000011010001110111011011111111000
10111001101110001110000010111110101111100010000000111110011011101111110000001001
11101011111010011010000111100011111000100110000001100010111110111000010000011011
00111110001110111110001100100110001001101110000011100111100011101000110000111110
01100010011011100010011101101110011011111010000110101100100110111001110001100010
11100110111110100110110111111010111110001110001111111101101111101011010011100110
10101111100011101111111100001111100010011010011000000111111000111111110110101111
11111000100110111000000100011000100110111110111000001100001001100000011111111000
10001001101111101000001100111001101111100011101000011100011011100000110000001001
10011011111000111000011101101011111000100110111000110100111110100001110000011011
10111110001001101000110111111110001001101111101001111101100011100011010000111110
11100010011011111001111100000010011011111000111011000111100110100111110001100011
00100110111110001011000100000110111110001001101111001100101111101100010011100110
01101111100010011111001100001111100010011011111001011101111000111100110110101110
11111000100110110001011100011000100110111110001011110111001001100101111111111010
10001001101111110011110100111001101111100010011110011101011011101111000000001111
10011011111000010110011101101011111000100110110010110111111110111001000000011000
10111110001000111110110111111110001001101111110111111100000011101011000000111001
11100010011001100011111100000010011011111000011100000100000110111111000001101011
00100110111011100110000100000110111110001000110100001100001111100001000011111110
01101111101110101110001100001111100010011001111100011100011000100011000110000010
11111000111011111010011100011000100110111011000100110100111001100111001110000110
10001001101110001110110100111001101111101111001101111101101011101101011010001111
10011011111010011011111101101011111000111001011111000111111110111111111110011000
10111110001110111110000111111110001001101011110001001100000011100000000010111001
11100010011011100010001100000010011011111110010011011100000110100000000111101011
00100110111110100110011100000110111110000010110111110100001111100000001100111110
01101111100011101110110100001111100010000111111100011100011000100000011101100010
11111000100110111011111100011000100110001100000100110100111001100000110111100110
10001001101111101110000100111001101110011100001101111101101011100001111100101111
10011011111000111010001101101011111010110100011111000111111110100011000101111000
10111110001001101110011111111110001111111100110001001100000011100111001111001001
11100010011011111010110000000010011000000101110011011100000110101101011001011011
00100110111110001111110000000110111000001111010111110100001111111111111011111110
01101111100010011000010000001111101000011001111100011100011000000000001110000010
