P1
50 50
10100110011110101010101010101010101010101010101011
00100100010000101010101010101010101010101010101010
10100101010110101010101010101010101010101010101010
10100101010100101010101010101010101010101010101010
10100101010100101010101010101010101010101010101010
10100101010100101010101010101010101010101010101010
10100101010100101010101010101010101010101010101010
10100101010100101010101010101010101010101010101010
10100101010100101010101010101010101010101010101010
10100101010100101010101010101010101010101010101010
10100101010100101010101010101010101010101010101010
10100101010100101010101010101010101010101010101010
10100101010100101010101010101010101010101010101010
10100101010100101010101010101010101010101010101010
10100101010100101010101010101010101010101010101010
10100101010100101010101010101010101010101010101010
10100101010100101010101010101010101010101010101010
10100101010100101010101010101010101010101010101010
10100101010100101010101010101010101010101010101010
10100101010100101010101010101010101010101010101010
10100101010100101010101010101010101010101010101010
10100101010100101010101010101010101010101010101010
10100101010100101010101010101010101010101010101010
10100101010100101010101010101010101010101010101010
10100101010100101010101010101010101010101010101010
10100101010100101010101010101010101010101010101010
10100101010100101010101010101010101010101010101010
10100101010100101010101010101010101010101010101010
10100101010100101010101010101010101010101010101010
10100101010100101010101010101010101010101010101010
10100101010100101010101010101010101010101010101010
10100101010100101010101010101010101010101010101010
10100101010100101010101010101010101010101010101010
10100101010100101010101010101010101010101010101010
10100101010100101010101010101010101010101010101010
10100101010100101010101010101010101010101010101010
10100101010100101010101010101010101010101010101010
10100101010100101010101010101010101010101010101010
10100101010100101010101010101010101010101010101010
10100101010100101010101010101010101010101010101010
10100101010100101010101010101010101010101010101010
10100101010100101010101010101010101010101010101010
10100101010100101010101010101010101010101010101010
10100101010100101010101010101010101010101010101010
10100101010100101010101010101010101010101010101010
10100101010100101010101010101010101010101010101010
10100101010100101010101010101010101010101010101010
10100101010100101010101010101010101010101010101010
10100101010100101010101010101010101010101010101010
10100101010100101010101010101010101010101010101010
