P1
3 3
100
111
000
