P1
50 50
10100110011110101010101010101010101010101010101011
00111101110000101010101010101010101010101010101010
01100001001001101010101010101010101010101010101011
01010011111111001010101010101010101010101010101010
11011110000000111010101010101010101010101010101011
00010001000001100010101010101010101010101010101010
00111011100011010110101010101010101010101010101011
11100010010110010100101010101010101010101010101010
10010111110101110111101010101010101010101010101010
11110100000101000100001010101010101010101010101010
10000110001101101110011010101010101010101010101010
11001101011001001001110010101010101010101010101010
10111001010111111111001110101010101010101010101010
10100111010100000000111000101010101010101010101010
10111100010110000001100101101010101010101010101010
10100010110101000011011101001010101010101010101010
10110110100101100110010001111010101010101010101010
10100100111101011101111011000010101010101010101010
10111111100001010001000010100110101010101010101010
10100000010011011011100110111100101010101010101010
10110000111110010010011100100011101010101010101010
10101001100001111111110011110110001010101010101010
10101111010011000000001110000101011010101010101010
10101000011110100000011001001101010010101010101010
10101100110000110000110111111001011110101010101010
10101011101001101001100100000111010000101010101010
10101010001111001111011110001100011001101010101010
10101011011000111000010001011010110111001010101010
10101010010101100100111011010010100100111010101010
10101011110101011111100010011110111111100010101010
10101010000101010000010111110000100000010110101010
10101011001101011000110100001001110000110100101010
10101010111001010101100110011111001001100111101010
10101010100111010101011101110000111111011100001010
10101010111100010101010001001001100000010010011010
10101010100010110101011011111111010000111111110010
10101010110110100101010010000000011001100000001110
10101010100100111101011111000000110111010000011000
10101010111111100001010000100001100100011000110101
00101010100000010011011001110011011110110101100101
11101010110000111110010111001110010000100101011101
00001010101001100001110100111001111001111101010001
10011010101111010011000111100111000111000001011011
01110010101000011110101100011100101100100011010010
11001110101100110000101010110011101011110110011111
00111000101011101001101010101110001010000101110000
01100101101010001111001010101001011011001101001000
11011101001011011000111010101111010010111001111100
10010001111010010101100010101000011110100111000011
01111011000011110101010110101100110000111100100110
