P1
80 80
10110101010110111111001010100010010101011110101010101011010101011010101010101010
10100101010100100000111010110111110101010000101010101010010101010010101010101010
10111101010111110001100010100100000101011001101010101011110101011110101010101010
10100001010100001011010110111110001101010111001010101010000101010000101010101010
10110011010110011010010100100001011001010100111010101011001101011001101010101010
10101110010101110011110111110011010111010111100010101010111001010111001010101010
10101001110101001110000100001110010100010100010110101010100111010100111010101010
10101111000101111001001110011001110110110110110100101010111100010111100010101010
10101000101101000111111001110111000100100100100111101010100010110100010110101010
10101101101001101100000111000100101111111111111100001010110110100110110100101010
10101001001111001010001100101111101000000000000010011010100100111100100111101010
10101111111000111011011011101000001100000000000111110010111111100011111100001010
10101000000101100010010010001100011010000000001100001110100000010110000010011010
10101100001101010111111111011010110011000000011010011000110000110101000111110010
10101010011001010100000000010010101110100000110011110101101001100101101100001110
10101011110111010110000000111110101000110001101110000101001111011101001010011000
10101010000100010101000001100000101101101011001001001101111000010001111011110101
00101011001110110101100011010001101001001010111111111001000100111011000010000101
11101010111000100101010110011011001111111010100000000111101111100010100111001101
00001010100101111101010101110010111000000010110000001100001000010110111100111001
10011010111101000001010101001110100100000110101000011010011100110100100011100111
01110010100001100011010101111000111110001100101100110011110011100111110110011100
11001110110011010110010101000101100001011011101011101110001110011100000101110010
10111000101110010101110101101101010011010010001010001001011001110010001101001110
10100101101001110101000101001001011110011111011011011111010111001111011001111000
10111101001111000101101101111111010001110000010010010000010100111000010111000101
00100001111000101101001001000000011011001000111111111000110111100100110100101101
11110011000101101001111111100000110010111101100000000101100100011111100111101001
00001110101101001111000000010001101110100001010000001101011110110000011100001111
10011000101001111000100000111011001000110011011000011001010000101000110010011000
11110101101111000101110001100010111101101110010100110111011001101101101111110101
00000101001000101101001011010110100001001001110111100100010111001001001000000101
10001101111101101001111010010100110011111111000100011110110100111111111100001101
01011001000001001111000011110111101110000000101110110000100111100000000010011001
01010111100011111000100110000100001001000001101000101001111100010000000111110111
01010100010110000101111101001110011111100011001101101111000010111000001100000100
11010110110101001101000001111001110000010110111001001000100110100100011010001110
10010100100101111001100011000111001000110100100111111101111100111110110011011000
11110111111101000111010110101100111101100111111100000001000011100000101110010101
00000100000001101100010100101011100001011100000010000011100110010001101001110101
10001110000011001010110111101010010011010010000111000110011101111011001111000101
01011001000110111010100100001011111110011111001100101101110001000010111000101101
01010111101100100010111110011010000001110000111011101001001011100110100101101001
01010100001011110110100001110011000011001001100010001111111010011100111101001111
01010110011010000100110011001110100110111111010111011000000011110011100001111000
11010101110011001111101110111000111100100000010100010100000110001110010011000100
10010101001110111000001000100101100011110000110110110110001101011001111110101111
01110101111000100100011101111101010110001001100100100101011001010111000000101000
11000101000101111110110001000001010101011111011111111101010111010100100001101100
10101101101101000000101011100011010101010000010000000001010100010111110011001011
00101001001001100001101010010110010101011000111000000011010110110100001110111010
01101111111111010011001011110101110101010101100100000110010100100110011000100011
01001000000000011110111010000101000101010101011110001101110111111101110101110110
11111100000000110000100011001101101101010101010001011001000100000001000101000101
00000010000001101001110110111001001001010101011011010111101110000011101101101101
10000111000011001111000100100111111111010101010010010100001001000110001001001001
01001100100110111000101111111100000000010101011111110110011111101101011111111111
01111011111100100101101000000010000000110101010000000101110000001001010000000000
11000010000011111101001100000111000001100101011000001101001000011111011000000000
10100111000110000001111010001100100011011101010100011001111100110000010100000001
00111100101101000011000011011011110110010001010110110111000011101000110110000011
11100011101001100110100110010010000101111011010100100100100110001101100101000110
10010110001111011100111101111111001101000010010111111111111101011001011101101100
11110101011000010011100001000000111001100111110100000000000001010111010001001011
00000101010100111110010011100001100111011100000110000000000011010100011011111010
00001101010111100001111110010011011100010010001101000000000110010110110010000011
10011001010100010011000001111110010010111111011001100000001101110100101111000110
11110111010110111110100011000001111110100000010111010000011001000111101000101100
10000100010100100000110110100011000000110000110100011000110111101100001101101011
01001110110111110001100100110110100001101001100110110101100100001010011001001010
11111000100100001011011111100100110011001111011100100101011110011011110111111011
00000101111110011010010000011111101110111000010011111101010001110010000100000010
00001101000001110011111000110000001000100100111110000001011011001111001110000111
10011001100011001110000101101000011101111111100001000011010010111000111001001100
11110111010110111001001101001100110001000000010011100110011110100101100111111011
00000100010100100111111001111011101011100000111110011101110000111101011100000010
00001110110111111100000111000010001010010001100001110001001001100001010010000111
10011000100100000010001100100111011011111011010011001011111111010011011111001100
11110101111110000111011011111100010010000010011110111010000000011110010000111011
00000101000001001100010010000010111111000111110000100011000000110001111001100010
