P1
80 80
10110101010110111111001010100010010101011110101010101011010101011010101010101010
11111111111111100001111111110111111111110011111111111111111111111111111111111111
00000000000000110011000000011100000000011110000000000000000000000000000000000000
00000000000001111111100000110110000000110011000000000000000000000000000000000000
00000000000011000000110001111111000001111111100000000000000000000000000000000000
00000000000111100001111011000001100011000000110000000000000000000000000000000000
00000000001100110011001111100011110111100001111000000000000000000000000000000000
00000000011111111111111000110110011100110011001100000000000000000000000000000000
00000000110000000000001101111111110111111111111110000000000000000000000000000000
00000001111000000000011111000000011100000000000011000000000000000000000000000000
00000011001100000000110001100000110110000000000111100000000000000000000000000000
00000111111110000001111011110001111111000000001100110000000000000000000000000000
00001100000011000011001110011011000001100000011111111000000000000000000000000000
00011110000111100111111011111111100011110000110000001100000000000000000000000000
00110011001100111100001110000000110110011001111000011110000000000000000000000000
01111111111111100110011011000001111111111111001100110011000000000000000000000000
11000000000000111111111111100011000000000001111111111111100000000000000000000000
11100000000001100000000000110111100000000011000000000000110000000000000000000001
00110000000011110000000001111100110000000111100000000001111000000000000000000011
11111000000110011000000011000111111000001100110000000011001100000000000000000111
00001100001111111100000111101100001100011111111000000111111110000000000000001100
00011110011000000110001100111110011110110000001100001100000011000000000000011110
00110011111100001111011111100011110011111000011110011110000111100000000000110011
11111110000110011001110000110110011110001100110011110011001100110000000001111111
00000011001111111111011001111111110011011111111110011111111111111000000011000000
00000111111000000001111111000000011111110000000011110000000000001100000111100000
00001100001100000011000001100000110000011000000110011000000000011110001100110000
00011110011110000111100011110001111000111100001111111100000000110011011111111000
00110011110011001100110110011011001101100110011000000110000001111111110000001100
01111110011111111111111111111111111111111111111100001111000011000000011000011110
11000011110000000000000000000000000000000000000110011001100111100000111100110011
01100110011000000000000000000000000000000000001111111111111100110001100111111110
11111111111100000000000000000000000000000000011000000000000111111011111100000011
00000000000110000000000000000000000000000000111100000000001100001110000110000110
00000000001111000000000000000000000000000001100110000000011110011011001111001111
10000000011001100000000000000000000000000011111111000000110011111111111001111001
11000000111111110000000000000000000000000110000001100001111110000000001111001111
01100001100000011000000000000000000000001111000011110011000011000000011001111000
11110011110000111100000000000000000000011001100110011111100111100000111111001100
10011110011001100110000000000000000000111111111111110000111100110001100001111111
11110011111111111111000000000000000001100000000000011001100111111011110011000000
10011110000000000001100000000000000011110000000000111111111100001110011111100001
11110011000000000011110000000000000110011000000001100000000110011011110000110011
00011111100000000110011000000000001111111100000011110000001111111110011001111110
00110000110000001111111100000000011000000110000110011000011000000011111111000011
11111001111000011000000110000000111100001111001111111100111100000110000001100111
00001111001100111100001111000001100110011001111000000111100110001111000011111100
00011001111111100110011001100011111111111111001100001100111111011001100110000110
00111111000000111111111111110110000000000001111110011111100001111111111111001111
11100001100001100000000000011111000000000011000011110000110011000000000001111001
00110011110011110000000000110001100000000111100110011001111111100000000011001111
11111110011110011000000001111011110000001100111111111111000000110000000111111001
00000011110011111100000011001110011000011111100000000001100001111000001100001111
10000110011110000110000111111011111100110000110000000011110011001100011110011001
11001111110011001111001100001110000111111001111000000110011111111110110011111111
01111000011111111001111110011011001100001111001100001111110000000011111110000000
11001100110000001111000011111111111110011001111110011000011000000110000011000000
11111111111000011001100110000000000011111111000011111100111100001111000111100001
00000000001100111111111111000000000110000001100110000111100110011001101100110011
10000000011111100000000001100000001111000011111111001100111111111111111111111111
11000000110000110000000011110000011001100110000001111111100000000000000000000000
11100001111001111000000110011000111111111111000011000000110000000000000000000001
00110011001111001100001111111101100000000001100111100001111000000000000000000011
11111111111001111110011000000111110000000011111100110011001100000000000000000111
00000000001111000011111100001100011000000110000111111111111110000000000000001100
00000000011001100110000110011110111100001111001100000000000011000000000000011110
00000000111111111111001111110011100110011001111110000000000111100000000000110011
10000001100000000001111000011110111111111111000011000000001100110000000001111111
11000011110000000011001100110011100000000001100111100000011111111000000011000000
11100110011000000111111111111110110000000011111100110000110000001100000111100001
00111111111100001100000000000011111000000110000111111001111000011110001100110011
11100000000110011110000000000110001100001111001100001111001100110011011111111111
00110000001111110011000000001111011110011001111110011001111111111111110000000000
01111000011000011111100000011001110011111111000011111111000000000000011000000000
11001100111100110000110000111111011110000001100110000001100000000000111100000000
11111111100111111001111001100001110011000011111111000011110000000001100110000001
00000000111100001111001111110011011111100110000001100110011000000011111111000011
10000001100110011001111000011111110000111111000011111111111100000110000001100111
11000011111111111111001100110000011001100001100110000000000110001111000011111100
11100110000000000001111111111000111111110011111111000000001111011001100110000111
