P1
50 50
10100110011110101010101010101010101010101010101011
11101110110011111111111111111111111111111111111110
10111011110110000000000000000000000000000000000011
11101110011110000000000000000000000000000000000110
10111010110010000000000000000000000000000000001111
11101111110110000000000000000000000000000000011000
10111000011110000000000000000000000000000000111001
11101000110010000000000000000000000000000001101011
00111001110110000000000000000000000000000011111110
01101011011110000000000000000000000000000110000010
11111111110010000000000000000000000000001110000110
10000000010110000000000000000000000000011010001111
10000000111110000000000000000000000000111110011000
10000001100010000000000000000000000001100010111001
10000011100110000000000000000000000011100111101011
10000110101110000000000000000000000110101100111110
10001111111010000000000000000000001111111101100011
10011000001110000000000000000000011000000111100110
10111000011010000000000000000000111000001100101111
11101000111110000000000000000001101000011101111000
10111001100010000000000000000011111000110111001001
11101011100110000000000000000110001001111101011011
00111110101110000000000000001110011011000111111110
01100011111010000000000000011010111111001100000010
11100110001110000000000000111111100001011100000110
10101110011010000000000001100000100011110100001111
11111010111110000000000011100001100110011100011000
10001111100010000000000110100011101110110100111001
10011000100110000000001111100110111011111101101011
10111001101110000000011000101111101110000111111110
11101011111010000000111001111000111010001100000011
00111110001110000001101011001001101110011100000110
01100010011010000011111111011011111010110100001110
11100110111110000110000001111110001111111100011010
10101111100010001110000011000010011000000100111111
11111000100110011010000111000110111000001101100000
10001001101110111110001101001111101000011111100001
10011011111011100010011111011000111000110000100011
10111110001110100110110001111001101001110001100110
11100010011011101111110011001011111011010011101111
00100110111110111000010111011110001111110110111000
01101111100011101000111101110010011000011111101000
11111000100110111001100111010110111000110000111000
10001001101111101011101101111111101001110001101001
10011011111000111110111111000000111011010011111011
10111110001001100011100001000001101111110110001110
11100010011011100110100011000011111000011110011011
00100110111110101111100111000110001000110010111110
01101111100011111000101101001110011001110111100010
11111000100110001001111111011010111011011100100110
